<svg width="43" height="42" viewBox="0 0 43 42" fill="none" xmlns="http://www.w3.org/2000/svg">
<g id="BoundingBox">
<path id="Vector" opacity="0.2" d="M34.625 6.5625H29.375C28.6501 6.5625 28.0625 7.15013 28.0625 7.875V13.125C28.0625 13.8499 28.6501 14.4375 29.375 14.4375H34.625C35.3499 14.4375 35.9375 13.8499 35.9375 13.125V7.875C35.9375 7.15013 35.3499 6.5625 34.625 6.5625Z" fill="#009379"/>
<path id="Vector_2" opacity="0.2" d="M8.375 6.625H13.625C14.3154 6.625 14.875 7.18464 14.875 7.875V13.125C14.875 13.8154 14.3154 14.375 13.625 14.375H8.375C7.68464 14.375 7.125 13.8154 7.125 13.125V7.875C7.125 7.18464 7.68464 6.625 8.375 6.625Z" fill="#009379" stroke="#009379" stroke-width="0.125"/>
<path id="Vector_3" opacity="0.2" d="M29.375 27.625H34.625C35.3154 27.625 35.875 28.1846 35.875 28.875V34.125C35.875 34.8154 35.3154 35.375 34.625 35.375H29.375C28.6846 35.375 28.125 34.8154 28.125 34.125V28.875C28.125 28.1846 28.6846 27.625 29.375 27.625Z" fill="#009379" stroke="#009379" stroke-width="0.125"/>
<path id="Vector_4" opacity="0.2" d="M8.375 27.625H13.625C14.3154 27.625 14.875 28.1846 14.875 28.875V34.125C14.875 34.8154 14.3154 35.375 13.625 35.375H8.375C7.68464 35.375 7.125 34.8154 7.125 34.125V28.875C7.125 28.1846 7.68464 27.625 8.375 27.625Z" fill="#009379" stroke="#009379" stroke-width="0.125"/>
<path id="Vector_5" d="M34.625 6.5625H29.375C28.6501 6.5625 28.0625 7.15013 28.0625 7.875V13.125C28.0625 13.8499 28.6501 14.4375 29.375 14.4375H34.625C35.3499 14.4375 35.9375 13.8499 35.9375 13.125V7.875C35.9375 7.15013 35.3499 6.5625 34.625 6.5625Z" stroke="#009379" stroke-width="2" stroke-linecap="round" stroke-linejoin="round"/>
<path id="Vector_6" d="M13.625 6.5625H8.375C7.65013 6.5625 7.0625 7.15013 7.0625 7.875V13.125C7.0625 13.8499 7.65013 14.4375 8.375 14.4375H13.625C14.3499 14.4375 14.9375 13.8499 14.9375 13.125V7.875C14.9375 7.15013 14.3499 6.5625 13.625 6.5625Z" stroke="#009379" stroke-width="2" stroke-linecap="round" stroke-linejoin="round"/>
<path id="Vector_7" d="M34.625 27.5625H29.375C28.6501 27.5625 28.0625 28.1501 28.0625 28.875V34.125C28.0625 34.8499 28.6501 35.4375 29.375 35.4375H34.625C35.3499 35.4375 35.9375 34.8499 35.9375 34.125V28.875C35.9375 28.1501 35.3499 27.5625 34.625 27.5625Z" stroke="#009379" stroke-width="2" stroke-linecap="round" stroke-linejoin="round"/>
<path id="Vector_8" d="M13.625 27.5625H8.375C7.65013 27.5625 7.0625 28.1501 7.0625 28.875V34.125C7.0625 34.8499 7.65013 35.4375 8.375 35.4375H13.625C14.3499 35.4375 14.9375 34.8499 14.9375 34.125V28.875C14.9375 28.1501 14.3499 27.5625 13.625 27.5625Z" stroke="#009379" stroke-width="2" stroke-linecap="round" stroke-linejoin="round"/>
<path id="Vector_9" d="M11 27.5625V14.4375" stroke="#009379" stroke-width="2" stroke-linecap="round" stroke-linejoin="round"/>
<path id="Vector_10" d="M28.0625 31.5H14.9375" stroke="#009379" stroke-width="2" stroke-linecap="round" stroke-linejoin="round"/>
<path id="Vector_11" d="M32 14.4375V27.5625" stroke="#009379" stroke-width="2" stroke-linecap="round" stroke-linejoin="round"/>
<path id="Vector_12" d="M14.9375 10.5H28.0625" stroke="#009379" stroke-width="2" stroke-linecap="round" stroke-linejoin="round"/>
</g>
</svg>
