<svg width="43" height="42" viewBox="0 0 43 42" fill="none" xmlns="http://www.w3.org/2000/svg">
<g id="Confetti">
<path id="Vector" opacity="0.2" d="M17.3 32.5499L9.95003 25.2L6.718 34.1085C6.62865 34.3423 6.60888 34.5969 6.66108 34.8417C6.71328 35.0864 6.83523 35.3108 7.01219 35.4878C7.18914 35.6648 7.41355 35.7867 7.6583 35.8389C7.90305 35.8911 8.15768 35.8713 8.39144 35.782L17.3 32.5499Z" fill="#F8D57E"/>
<path id="Vector_2" opacity="0.2" d="M33.1206 24.8341L33.1208 24.8343C33.2704 24.9826 33.3801 25.1664 33.4397 25.3684C33.4993 25.5705 33.5068 25.7844 33.4616 25.9902C33.4164 26.1959 33.3199 26.387 33.1811 26.5455C33.0423 26.704 32.8657 26.8248 32.6677 26.8968L25.9785 29.3277L13.1723 16.5215L15.6032 9.83233C15.6752 9.63431 15.7961 9.4577 15.9546 9.31889C16.1131 9.18009 16.3041 9.0836 16.5098 9.03839C16.7156 8.99319 16.9295 9.00072 17.1316 9.06031C17.3337 9.11989 17.5174 9.22959 17.6657 9.3792L17.6659 9.37939L33.1206 24.8341Z" fill="#F8D57E" stroke="#F8D57E" stroke-width="0.125"/>
<path id="Vector_3" d="M6.718 34.1086L15.5446 9.81098C15.6201 9.60306 15.747 9.41762 15.9134 9.27188C16.0799 9.12613 16.2804 9.02482 16.4965 8.97735C16.7126 8.92988 16.9371 8.93779 17.1493 9.00036C17.3615 9.06292 17.5544 9.1781 17.7102 9.3352L33.1649 24.7899C33.322 24.9456 33.4372 25.1386 33.4997 25.3508C33.5623 25.563 33.5702 25.7875 33.5227 26.0036C33.4753 26.2196 33.3739 26.4202 33.2282 26.5866C33.0825 26.7531 32.897 26.8799 32.6891 26.9555L8.39144 35.7821C8.15768 35.8714 7.90305 35.8912 7.6583 35.839C7.41355 35.7868 7.18914 35.6648 7.01219 35.4879C6.83523 35.3109 6.71328 35.0865 6.66108 34.8418C6.60888 34.597 6.62865 34.3424 6.718 34.1086V34.1086Z" stroke="#F8D57E" stroke-width="2" stroke-linecap="round" stroke-linejoin="round"/>
<path id="Vector_4" d="M28.0625 11.8125C28.0625 11.8125 28.0625 7.875 32 7.875C35.9375 7.875 35.9375 3.9375 35.9375 3.9375" stroke="#F8D57E" stroke-width="2" stroke-linecap="round" stroke-linejoin="round"/>
<path id="Vector_5" d="M17.3 32.5499L9.94995 25.2" stroke="#F8D57E" stroke-width="2" stroke-linecap="round" stroke-linejoin="round"/>
<path id="Vector_6" d="M24.125 2.625V6.5625" stroke="#F8D57E" stroke-width="2" stroke-linecap="round" stroke-linejoin="round"/>
<path id="Vector_7" d="M35.9375 18.375L38.5625 21" stroke="#F8D57E" stroke-width="2" stroke-linecap="round" stroke-linejoin="round"/>
<path id="Vector_8" d="M35.9375 13.125L39.875 11.8125" stroke="#F8D57E" stroke-width="2" stroke-linecap="round" stroke-linejoin="round"/>
<path id="Vector_9" d="M13.1 16.5375L25.9625 29.4" stroke="#F8D57E" stroke-width="2" stroke-linecap="round" stroke-linejoin="round"/>
</g>
</svg>
