<svg width="32" height="33" viewBox="0 0 32 33" fill="none" xmlns="http://www.w3.org/2000/svg">
<g id="Social Icons">
<path id="BG" fill-rule="evenodd" clip-rule="evenodd" d="M0 16.5C0 7.66344 7.16344 0.5 16 0.5C24.8366 0.5 32 7.66344 32 16.5C32 25.3366 24.8366 32.5 16 32.5C7.16344 32.5 0 25.3366 0 16.5Z" fill="#4E4D4D"/>
<g id="Path">
<path d="M11.5459 10.3818C11.5223 9.3136 10.7584 8.5 9.51803 8.5C8.27761 8.5 7.46667 9.3136 7.46667 10.3818C7.46667 11.4279 8.25365 12.2649 9.47096 12.2649H9.49413C10.7584 12.2649 11.5459 11.4279 11.5459 10.3818Z" fill="white"/>
<path d="M11.307 13.752H7.68109V24.6464H11.307V13.752Z" fill="white"/>
<path d="M20.2088 13.4961C22.5948 13.4961 24.3836 15.0535 24.3836 18.3998L24.3835 24.6464H20.7577V18.8178C20.7577 17.3538 20.233 16.3548 18.9204 16.3548C17.9186 16.3548 17.3219 17.0283 17.0599 17.6788C16.964 17.9119 16.9405 18.2367 16.9405 18.5623V24.6467H13.3141C13.3141 24.6467 13.3619 14.7745 13.3141 13.7522H16.9405V15.2953C17.4217 14.5535 18.2836 13.4961 20.2088 13.4961Z" fill="white"/>
</g>
</g>
</svg>
