<svg width="32" height="33" viewBox="0 0 32 33" fill="none" xmlns="http://www.w3.org/2000/svg">
<g id="Social Icons">
<path id="BG" fill-rule="evenodd" clip-rule="evenodd" d="M0 16.5C0 7.66344 7.16344 0.5 16 0.5C24.8366 0.5 32 7.66344 32 16.5C32 25.3366 24.8366 32.5 16 32.5C7.16344 32.5 0 25.3366 0 16.5Z" fill="#4E4D4D"/>
<path id="Path" fill-rule="evenodd" clip-rule="evenodd" d="M16.0008 7.96655C13.6833 7.96655 13.3924 7.97669 12.4822 8.01811C11.5737 8.05971 10.9536 8.20353 10.4111 8.41456C9.84981 8.63252 9.37372 8.92407 8.8994 9.39857C8.42473 9.87288 8.13317 10.349 7.9145 10.91C7.70294 11.4528 7.55894 12.0731 7.51805 12.9812C7.47734 13.8914 7.46667 14.1824 7.46667 16.5C7.46667 18.8175 7.47699 19.1075 7.51823 20.0177C7.56001 20.9262 7.70383 21.5462 7.91468 22.0888C8.13282 22.6501 8.42437 23.1262 8.89887 23.6005C9.37301 24.0752 9.8491 24.3674 10.41 24.5854C10.9529 24.7964 11.5732 24.9402 12.4815 24.9818C13.3917 25.0233 13.6824 25.0334 15.9997 25.0334C18.3175 25.0334 18.6074 25.0233 19.5176 24.9818C20.4261 24.9402 21.0469 24.7964 21.5898 24.5854C22.1509 24.3674 22.6263 24.0752 23.1004 23.6005C23.5751 23.1262 23.8667 22.6501 24.0853 22.089C24.2951 21.5462 24.4391 20.926 24.4818 20.0179C24.5227 19.1076 24.5333 18.8175 24.5333 16.5C24.5333 14.1824 24.5227 13.8916 24.4818 12.9814C24.4391 12.0729 24.2951 11.4528 24.0853 10.9102C23.8667 10.349 23.5751 9.87288 23.1004 9.39857C22.6258 8.9239 22.1511 8.63234 21.5893 8.41456C21.0453 8.20353 20.4249 8.05971 19.5164 8.01811C18.6062 7.97669 18.3164 7.96655 15.9981 7.96655H16.0008ZM15.2353 9.50432C15.4625 9.50397 15.716 9.50432 16.0008 9.50432C18.2792 9.50432 18.5492 9.5125 19.449 9.55339C20.281 9.59143 20.7326 9.73046 21.0334 9.84726C21.4316 10.0019 21.7155 10.1868 22.014 10.4855C22.3127 10.7842 22.4976 11.0686 22.6526 11.4668C22.7694 11.7673 22.9086 12.2188 22.9464 13.0508C22.9873 13.9504 22.9962 14.2206 22.9962 16.498C22.9962 18.7754 22.9873 19.0456 22.9464 19.9451C22.9084 20.7772 22.7694 21.2287 22.6526 21.5292C22.4979 21.9274 22.3127 22.2109 22.014 22.5094C21.7153 22.8081 21.4318 22.993 21.0334 23.1477C20.7329 23.265 20.281 23.4037 19.449 23.4417C18.5494 23.4826 18.2792 23.4915 16.0008 23.4915C13.7222 23.4915 13.4521 23.4826 12.5526 23.4417C11.7205 23.4033 11.269 23.2643 10.968 23.1475C10.5698 22.9928 10.2853 22.8079 9.98666 22.5093C9.68799 22.2106 9.5031 21.9269 9.34808 21.5284C9.23128 21.228 9.09208 20.7764 9.05421 19.9444C9.01332 19.0449 9.00514 18.7746 9.00514 16.4959C9.00514 14.2171 9.01332 13.9483 9.05421 13.0487C9.09226 12.2167 9.23128 11.7651 9.34808 11.4643C9.50275 11.0661 9.68799 10.7817 9.98666 10.483C10.2853 10.1843 10.5698 9.99944 10.968 9.84441C11.2688 9.72708 11.7205 9.58841 12.5526 9.55019C13.3398 9.51463 13.6448 9.50397 15.2353 9.50219V9.50432ZM20.5558 10.9212C19.9905 10.9212 19.5318 11.3794 19.5318 11.9449C19.5318 12.5102 19.9905 12.9689 20.5558 12.9689C21.1212 12.9689 21.5799 12.5102 21.5799 11.9449C21.5799 11.3795 21.1212 10.9212 20.5558 10.9212ZM16.0008 12.1177C13.5807 12.1177 11.6186 14.0798 11.6186 16.5C11.6186 18.9201 13.5807 20.8813 16.0008 20.8813C18.4209 20.8813 20.3824 18.9201 20.3824 16.5C20.3824 14.0798 18.4209 12.1177 16.0008 12.1177ZM16.0008 13.6555C17.5717 13.6555 18.8453 14.9289 18.8453 16.5C18.8453 18.0708 17.5717 19.3444 16.0008 19.3444C14.4298 19.3444 13.1563 18.0708 13.1563 16.5C13.1563 14.9289 14.4298 13.6555 16.0008 13.6555Z" fill="white"/>
</g>
</svg>
