<svg width="229" height="110" viewBox="0 0 229 110" fill="none" xmlns="http://www.w3.org/2000/svg">
<g id="Group_8">
<g id="Group_9">
<path id="Vector_24" d="M13.9697 0.556274H123.817C127.436 0.556274 130.543 2.9948 131.311 6.42238L152.001 100.203C153.024 104.797 149.369 109.143 144.507 109.143H32.832C29.1765 109.143 26.0329 106.635 25.3383 103.172L6.47602 9.39024C5.52559 4.79693 9.14448 0.556274 13.9697 0.556274Z" fill="#B2B2B2"/>
<path id="Vector_25" d="M7.646 0.556274H117.457C121.076 0.556274 124.183 2.9948 124.951 6.42238L145.64 100.203C146.664 104.797 143.045 109.143 138.147 109.143H26.5083C22.8528 109.143 19.7091 106.635 19.0146 103.172L0.152286 9.39024C-0.79814 4.79693 2.82076 0.556274 7.646 0.556274Z" fill="#D1D1D1"/>
<path id="Vector_26" d="M149.004 101.126H224.051C226.354 101.126 228.182 102.928 228.182 105.119C228.182 107.345 226.318 109.111 224.051 109.111H147.542L149.004 101.126Z" fill="#B2B2B2"/>
</g>
<path id="Vector_27" d="M75.6388 52.3887C75.6388 58.7845 70.3018 63.9435 63.6854 63.9435C57.0689 63.9435 51.7319 58.7491 51.7319 52.3887C51.7319 45.9929 57.1055 40.8339 63.6854 40.8339C70.3018 40.8339 75.6388 45.9929 75.6388 52.3887Z" fill="white"/>
</g>
</svg>
