<svg width="234" height="247" viewBox="0 0 234 247" fill="none" xmlns="http://www.w3.org/2000/svg">
<g id="Group_3">
<path id="Vector_4" d="M105.462 182.667L113.614 219.38L86.2344 222.525L78.4482 186.377L105.462 182.667Z" fill="#FCC9A7"/>
<path id="Vector_5" d="M115.258 216.073C114.563 214.094 112.37 213.387 110.871 214.66C107.947 217.168 102.683 220.243 94.8966 219.501C86.8179 218.723 83.7839 214.13 82.6142 210.808C81.9927 209.077 80.2746 208.193 78.7393 208.935L29.7193 232.752C26.7584 234.2 24.4188 236.886 23.2491 240.243C22.1524 243.388 24.3457 246.78 27.4163 246.709L112.114 244.448C115.44 244.377 117.999 241.197 117.706 237.522L116.317 219.501C116.281 219.218 116.245 218.9 116.135 218.617L115.258 216.073Z" fill="#1F252A"/>
<path id="Vector_6" d="M104.986 5.14129H41.4174C41.4174 5.14129 2.7058 3.0565 0.402843 33.7633C-1.90011 64.4702 57.1725 152.317 66.4209 199.243L119.572 195.002L81.2987 67.4031L176.488 67.9331C183.543 67.9684 190.561 66.979 197.214 64.7529C215.747 58.5338 244.041 49.6291 228.615 0.300293L104.986 5.14129Z" fill="#0A3550"/>
</g>
</svg>
