<svg width="111" height="133" viewBox="0 0 111 133" fill="none" xmlns="http://www.w3.org/2000/svg">
<g id="Group_4">
<g id="Group_5">
<path id="Vector_11" d="M79.2604 131.922C91.0676 129.59 98.671 118.459 96.2584 107.046L89.2033 73.6534L46.4707 82.0984L53.5257 115.491C55.9384 126.905 67.4531 134.254 79.2604 131.922Z" fill="#FCC9A7"/>
<path id="Vector_12" d="M92.1273 85.3304C92.1273 85.3304 87.6311 112.398 65.8444 114.023C46.7628 115.437 48.5901 88.758 48.5901 88.758L92.1273 85.3304Z" fill="#F4BE9A"/>
<g id="Group_6">
<path id="Vector_13" d="M67.5629 99.1789L71.328 98.3308C90.2269 94.0905 101.998 75.8572 97.611 57.6239L92.6395 36.8111C88.2529 18.5423 69.3906 7.16423 50.5283 11.4045L46.7632 12.2526C27.8643 16.4929 16.0937 34.7262 20.4803 52.9596L25.4517 73.7724C29.8383 92.0411 48.7006 103.419 67.5629 99.1789Z" fill="#FCC9A7"/>
</g>
<path id="Vector_14" d="M85.7667 66.2908C84.8894 67.7395 84.0487 69.9304 83.7562 73.2519C83.4272 77.4569 81.2339 81.4498 77.5785 83.782C67.0872 90.4958 59.0817 73.4993 43.5825 76.5028C43.5825 76.5028 37.5144 77.3862 36.308 83.9234C35.1017 90.4252 26.6576 79.047 24.7933 71.2731C22.929 63.4992 21.9785 109.754 60.1418 105.832C60.1418 105.832 79.4062 105.231 92.3832 86.2555C93.8088 84.1707 94.6496 81.7325 94.7227 79.2237C94.8323 75.5134 94.284 69.895 90.6285 65.8667C89.3491 64.3826 86.7903 64.5946 85.7667 66.2908Z" fill="#1C2226"/>
</g>
<path id="Vector_15" d="M85.8047 55.7889C85.8047 55.7889 69.3184 50.5239 72.0966 27.2376C72.0966 27.2376 31.1552 64.6936 0.814667 37.2023C0.814667 37.2023 14.3765 33.704 19.9694 24.7287C30.1682 8.36823 59.4852 -14.176 82.9534 11.9018C82.9534 11.9018 111.503 7.62621 103.314 50.1352L85.8047 55.7889Z" fill="#1C2226"/>
<path id="Vector_16" d="M85.8039 55.7963C87.3758 62.2981 94.1019 66.3618 100.828 64.8777C107.591 63.3582 111.757 56.8564 110.222 50.3546C108.65 43.8528 101.925 39.7892 95.1985 41.2733C88.4359 42.7928 84.2321 49.2946 85.8039 55.7963Z" fill="#FCC9A7"/>
</g>
</svg>
