<svg width="74" height="70" viewBox="0 0 74 70" fill="none" xmlns="http://www.w3.org/2000/svg">
<g id="Social Icons">
<path id="BG" fill-rule="evenodd" clip-rule="evenodd" d="M0 35C0 15.67 15.67 0 35 0C54.33 0 70 15.67 70 35C70 54.33 54.33 70 35 70C15.67 70 0 54.33 0 35Z" fill="#E5F4F2"/>
<path id="Vector" d="M35 10C30.142 10.0092 25.3915 11.4298 21.3271 14.0886C17.2627 16.7474 14.06 20.5297 12.1089 24.9749C10.1578 29.4201 9.54259 34.3362 10.3382 39.1245C11.1339 43.9128 13.306 48.3666 16.59 51.9434C18.9355 54.4836 21.7822 56.5109 24.9508 57.8975C28.1193 59.2841 31.5409 60 35 60C38.4591 60 41.8807 59.2841 45.0492 57.8975C48.2178 56.5109 51.0645 54.4836 53.41 51.9434C56.694 48.3666 58.8661 43.9128 59.6618 39.1245C60.4574 34.3362 59.8422 29.4201 57.8911 24.9749C55.94 20.5297 52.7373 16.7474 48.6729 14.0886C44.6085 11.4298 39.858 10.0092 35 10ZM35 55.0466C29.8113 55.0387 24.828 53.0202 21.0986 49.4157C22.2309 46.6617 24.157 44.3062 26.6322 42.6485C29.1075 40.9907 32.0201 40.1056 35 40.1056C37.9799 40.1056 40.8925 40.9907 43.3678 42.6485C45.843 44.3062 47.7691 46.6617 48.9014 49.4157C45.172 53.0202 40.1887 55.0387 35 55.0466ZM29.9905 30.0207C29.9905 29.0308 30.2843 28.0631 30.8347 27.24C31.3852 26.4169 32.1676 25.7753 33.0829 25.3965C33.9983 25.0177 35.0056 24.9186 35.9773 25.1117C36.9491 25.3048 37.8417 25.7815 38.5423 26.4815C39.2429 27.1815 39.72 28.0733 39.9133 29.0442C40.1066 30.0151 40.0073 31.0215 39.6282 31.9361C39.249 32.8507 38.6069 33.6324 37.7831 34.1823C36.9593 34.7323 35.9908 35.0259 35 35.0259C33.6714 35.0259 32.3972 34.4985 31.4577 33.5599C30.5183 32.6212 29.9905 31.3481 29.9905 30.0207ZM52.3079 45.0362C50.07 41.2117 46.6256 38.2368 42.5143 36.5775C43.7896 35.1326 44.6206 33.3508 44.9075 31.4458C45.1944 29.5407 44.925 27.5935 44.1317 25.8376C43.3384 24.0818 42.0549 22.5919 40.4351 21.5468C38.8153 20.5018 36.9281 19.9459 35 19.9459C33.0719 19.9459 31.1847 20.5018 29.5649 21.5468C27.9451 22.5919 26.6616 24.0818 25.8683 25.8376C25.075 27.5935 24.8056 29.5407 25.0925 31.4458C25.3794 33.3508 26.2104 35.1326 27.4857 36.5775C23.3744 38.2368 19.93 41.2117 17.6921 45.0362C15.9086 42.0008 14.9662 38.5457 14.9619 35.0259C14.9619 29.716 17.0731 24.6237 20.831 20.8691C24.5888 17.1145 29.6856 15.0052 35 15.0052C40.3144 15.0052 45.4112 17.1145 49.1691 20.8691C52.9269 24.6237 55.0381 29.716 55.0381 35.0259C55.0338 38.5457 54.0914 42.0008 52.3079 45.0362Z" fill="#104362"/>
</g>
</svg>
