<svg width="97" height="39" viewBox="0 0 97 39" fill="none" xmlns="http://www.w3.org/2000/svg">
<path id="Vector_8" d="M92.6282 8.36272C91.9337 6.38391 89.7407 5.67722 88.242 6.94931C85.3176 9.45815 80.0537 12.5324 72.2675 11.7903C64.1889 11.0129 61.1545 6.41923 59.9847 3.09766C59.3633 1.3662 57.6452 0.482811 56.1099 1.22486L7.09024 25.0412C4.1293 26.49 1.78942 29.1755 0.619661 32.5324C-0.476985 35.6773 1.71668 39.0696 4.78729 38.9989L90.947 36.7374C94.2735 36.6667 96.832 33.4865 96.5396 29.8116L93.6521 11.7903C93.6155 11.5076 93.579 11.1896 93.4693 10.9069L92.6282 8.36272Z" fill="#1F252A"/>
</svg>
